<svg xmlns="http://www.w3.org/2000/svg" xmlns:xlink="http://www.w3.org/1999/xlink" width="500" zoomAndPan="magnify" viewBox="0 0 375 374.999991" height="500" preserveAspectRatio="xMidYMid meet" version="1.0"><defs><g/><clipPath id="5a2b6e1cff"><path d="M 47.472656 140 L 127.722656 140 L 127.722656 219.953125 L 47.472656 219.953125 Z M 47.472656 140 " clip-rule="nonzero"/></clipPath></defs><g clip-path="url(#5a2b6e1cff)"><path fill="#259922" d="M 79.433594 142.863281 C 84.320312 139.714844 91.019531 139.707031 95.898438 142.871094 C 100.566406 145.664062 103.523438 150.941406 103.605469 156.371094 C 107.492188 156.410156 111.378906 156.347656 115.265625 156.394531 C 117.355469 156.230469 119.332031 157.910156 119.449219 160.011719 C 122.085938 178.425781 124.714844 196.847656 127.296875 215.269531 C 127.839844 217.621094 125.792969 220.070312 123.367188 219.898438 C 99.554688 219.9375 75.734375 219.929688 51.914062 219.90625 C 49.5 220.0625 47.46875 217.644531 47.976562 215.296875 C 50.589844 196.886719 53.214844 178.464844 55.859375 160.058594 C 55.996094 157.972656 57.90625 156.246094 60.007812 156.394531 C 63.910156 156.339844 67.8125 156.414062 71.707031 156.386719 C 71.808594 150.949219 74.75 145.664062 79.433594 142.863281 Z M 79.589844 156.355469 C 84.972656 156.414062 90.351562 156.386719 95.734375 156.355469 C 95.519531 152.15625 92.003906 148.3125 87.660156 148.441406 C 83.328125 148.3125 79.800781 152.148438 79.589844 156.355469 Z M 79.589844 156.355469 " fill-opacity="1" fill-rule="nonzero"/></g><g fill="#ffffff" fill-opacity="1"><g transform="translate(62.318887, 209.663915)"><g><path d="M 26.4375 -17.140625 L 26.4375 -25 L 46.6875 -25 L 46.6875 -6.453125 C 44.738281 -4.546875 41.898438 -2.859375 38.171875 -1.390625 C 34.441406 0.0664062 30.644531 0.796875 26.78125 0.796875 C 21.90625 0.796875 17.65625 -0.222656 14.03125 -2.265625 C 10.40625 -4.316406 7.675781 -7.238281 5.84375 -11.03125 C 4.019531 -14.832031 3.109375 -18.96875 3.109375 -23.4375 C 3.109375 -28.0625 4.023438 -32.1875 5.859375 -35.8125 C 7.703125 -39.4375 10.347656 -42.273438 13.796875 -44.328125 C 17.253906 -46.390625 21.398438 -47.421875 26.234375 -47.421875 C 32.066406 -47.421875 36.609375 -46.207031 39.859375 -43.78125 C 43.117188 -41.351562 45.207031 -38.007812 46.125 -33.75 L 36.734375 -32 C 36.078125 -34.25 34.847656 -36.035156 33.046875 -37.359375 C 31.242188 -38.679688 28.972656 -39.34375 26.234375 -39.34375 C 22.171875 -39.34375 18.914062 -38.035156 16.46875 -35.421875 C 14.03125 -32.816406 12.8125 -28.960938 12.8125 -23.859375 C 12.8125 -18.316406 14.039062 -14.15625 16.5 -11.375 C 18.96875 -8.601562 22.191406 -7.21875 26.171875 -7.21875 C 28.128906 -7.21875 30.109375 -7.609375 32.109375 -8.390625 C 34.109375 -9.179688 35.800781 -10.117188 37.1875 -11.203125 L 37.1875 -17.140625 Z M 26.4375 -17.140625 "/></g></g></g><g fill="#000000" fill-opacity="1"><g transform="translate(128.319481, 213.10047)"><g><path d="M 3.578125 0 L 3.578125 -37.75 L 11.234375 -37.75 L 11.234375 0 Z M 3.578125 0 "/></g></g></g><g fill="#000000" fill-opacity="1"><g transform="translate(142.968806, 213.10047)"><g><path d="M 0.59375 0 L 0.59375 -6.84375 L 20.421875 -31.390625 L 2.8125 -31.390625 L 2.8125 -37.75 L 30.4375 -37.75 L 30.4375 -31.859375 L 9.765625 -6.390625 L 31.203125 -6.390625 L 31.203125 0 Z M 0.59375 0 "/></g></g></g><g fill="#000000" fill-opacity="1"><g transform="translate(175.176721, 213.10047)"><g><path d="M 3.734375 0 L 3.734375 -37.75 L 15.140625 -37.75 L 21.984375 -12.03125 L 28.734375 -37.75 L 40.1875 -37.75 L 40.1875 0 L 33.109375 0 L 33.109375 -29.6875 L 25.625 0 L 18.3125 0 L 10.8125 -29.6875 L 10.8125 0 Z M 3.734375 0 "/></g></g></g><g fill="#000000" fill-opacity="1"><g transform="translate(219.098939, 213.10047)"><g><path d="M 37.84375 0 L 29.578125 0 L 26.3125 -8.59375 L 11.171875 -8.59375 L 8.0625 0 L 0 0 L 14.703125 -37.75 L 22.78125 -37.75 Z M 23.84375 -14.9375 L 18.671875 -28.9375 L 13.546875 -14.9375 Z M 23.84375 -14.9375 "/></g></g></g><g fill="#000000" fill-opacity="1"><g transform="translate(257.176873, 213.10047)"><g><path d="M 3.859375 0 L 3.859375 -37.75 L 16.09375 -37.75 C 20.726562 -37.75 23.75 -37.5625 25.15625 -37.1875 C 27.300781 -36.613281 29.101562 -35.378906 30.5625 -33.484375 C 32.019531 -31.585938 32.75 -29.144531 32.75 -26.15625 C 32.75 -24.164062 32.441406 -22.445312 31.828125 -21 C 31.210938 -19.550781 30.335938 -18.316406 29.203125 -17.296875 C 28.066406 -16.285156 26.722656 -15.519531 25.171875 -15 C 23.628906 -14.488281 20.722656 -14.234375 16.453125 -14.234375 L 11.4375 -14.234375 L 11.4375 0 Z M 11.4375 -31.390625 L 11.4375 -20.671875 L 15.609375 -20.671875 C 18.628906 -20.671875 20.640625 -20.863281 21.640625 -21.25 C 22.648438 -21.632812 23.445312 -22.25 24.03125 -23.09375 C 24.613281 -23.9375 24.90625 -24.925781 24.90625 -26.0625 C 24.90625 -27.4375 24.492188 -28.5625 23.671875 -29.4375 C 22.859375 -30.3125 21.84375 -30.867188 20.625 -31.109375 C 19.71875 -31.296875 17.890625 -31.390625 15.140625 -31.390625 Z M 11.4375 -31.390625 "/></g></g></g></svg>